<svg width="120" height="42" viewBox="0 0 120 42" fill="none" xmlns="http://www.w3.org/2000/svg">
<path opacity="0.57" d="M12.5202 20.3305L12.1338 19.9441L2.90289e-06 32.0779L0.386428 32.4643L12.5202 20.3305Z" fill="url(#paint0_linear_2_88)"/>
<path opacity="0.57" d="M15.0134 25.1418L14.627 24.7554L6.43472 32.9476L6.82114 33.334L15.0134 25.1418Z" fill="url(#paint1_linear_2_88)"/>
<path opacity="0.57" d="M10.4999 36.9247L10.0977 36.5225L7.86723 38.7529L8.26944 39.1551L10.4999 36.9247Z" fill="url(#paint2_linear_2_88)"/>
<path opacity="0.57" d="M6.28795 33.8763L5.88574 33.4741L3.65532 35.7045L4.05752 36.1068L6.28795 33.8763Z" fill="url(#paint3_linear_2_88)"/>
<path opacity="0.57" d="M14.9393 39.7696L14.5371 39.3674L12.3067 41.5979L12.7089 42.0001L14.9393 39.7696Z" fill="url(#paint4_linear_2_88)"/>
<path opacity="0.57" d="M16.9636 30.4936L16.5772 30.1072L11.09 35.5944L11.4764 35.9809L16.9636 30.4936Z" fill="url(#paint5_linear_2_88)"/>
<path opacity="0.57" d="M21.4763 33.3273L21.0898 32.9409L15.6026 38.4282L15.989 38.8146L21.4763 33.3273Z" fill="url(#paint6_linear_2_88)"/>
<path opacity="0.57" d="M27.0505 35.0148L26.6641 34.6284L21.0995 40.193L21.4859 40.5794L27.0505 35.0148Z" fill="url(#paint7_linear_2_88)"/>
<g filter="url(#filter0_d_2_88)">
<path d="M37.998 25.2528L34.0775 32.8633C34.0775 32.8633 33.8469 33.2476 34.4619 33.4014L37.0755 34.0164C37.0755 34.0164 37.6905 34.1701 37.7674 33.632C37.7674 33.632 38.5361 27.9434 38.4593 25.4066C38.4593 25.2528 38.2287 25.0222 37.998 25.2528Z" fill="white"/>
</g>
<g filter="url(#filter1_d_2_88)">
<path d="M22.0807 9.33676L14.4703 13.2573C14.4703 13.2573 14.0859 13.4879 13.9322 12.8729L13.3172 10.2592C13.3172 10.2592 13.1635 9.64425 13.7016 9.56738C13.7016 9.56738 19.3902 8.79865 21.927 8.87552C22.0807 8.87552 22.3113 9.10614 22.0807 9.33676Z" fill="white"/>
</g>
<g filter="url(#filter2_d_2_88)">
<path d="M45.4533 2.57508C45.4533 2.57508 29.6175 19.4872 27.0807 21.7165C27.0807 21.7165 21.3152 26.867 20.4696 27.4051C19.624 27.9432 19.7777 28.7119 20.4696 28.7888C21.1614 28.8657 24.6207 29.2501 27.3113 31.1719C27.3113 31.1719 28.3875 31.9406 28.9256 32.94C29.1562 33.3243 29.3868 33.5549 29.7712 33.1706C30.1556 32.7862 35.0755 27.5588 38.8422 20.8709C42.609 14.1829 44.7615 8.8018 46.0683 3.03632C46.1452 2.4982 45.6071 2.42133 45.4533 2.57508Z" fill="white"/>
</g>
<g filter="url(#filter3_d_2_88)">
<path d="M44.502 1.62246C44.502 1.62246 27.5899 17.4583 25.3606 19.9951C25.3606 19.9951 20.2101 25.7606 19.672 26.6062C19.1339 27.4518 18.3652 27.2981 18.2883 26.6062C18.2114 25.9144 17.827 22.4551 15.9052 19.7645C15.9052 19.7645 15.1365 18.6883 14.1371 18.1502C13.7528 17.9196 13.5221 17.6889 13.9065 17.3046C14.2909 16.9202 19.5183 12.0003 26.2062 8.23355C32.8942 4.46676 38.2753 2.31432 44.0408 1.00747C44.5789 0.930599 44.6558 1.46871 44.502 1.62246Z" fill="white"/>
</g>
<path d="M52.2666 10.2036H55.976L57.6299 22.0409H57.6772L59.3311 10.2036H63.0406V26.7427H60.5833V14.2203H60.5361L58.6459 26.7427H56.4722L54.582 14.2203H54.5348V26.7427H52.2666V10.2036ZM68.5241 10.2036H72.0446L74.7381 26.7427H72.1391L71.6665 23.4585V23.5057H68.7131L68.2406 26.7427H65.8306L68.5241 10.2036ZM71.3594 21.2612L70.2016 13.0862H70.1544L69.0203 21.2612H71.3594ZM81.1508 26.9789C79.9065 26.9789 78.9535 26.6245 78.2919 25.9157C77.6461 25.2069 77.3232 24.2067 77.3232 22.9151V14.0312C77.3232 12.7396 77.6461 11.7394 78.2919 11.0306C78.9535 10.3218 79.9065 9.96736 81.1508 9.96736C82.3952 9.96736 83.3403 10.3218 83.9861 11.0306C84.6476 11.7394 84.9784 12.7396 84.9784 14.0312V15.7797H82.5212V13.8658C82.5212 12.842 82.088 12.3301 81.2217 12.3301C80.3554 12.3301 79.9222 12.842 79.9222 13.8658V23.1041C79.9222 24.1122 80.3554 24.6162 81.2217 24.6162C82.088 24.6162 82.5212 24.1122 82.5212 23.1041V20.576H84.9784V22.9151C84.9784 24.2067 84.6476 25.2069 83.9861 25.9157C83.3403 26.6245 82.3952 26.9789 81.1508 26.9789ZM88.0692 10.2036H90.6682V16.9374H93.4562V10.2036H96.0552V26.7427H93.4562V19.3001H90.6682V26.7427H88.0692V10.2036ZM103.189 26.9789C101.929 26.9789 100.968 26.6245 100.306 25.9157C99.6446 25.1912 99.3139 24.1594 99.3139 22.8206V22.5134H101.771V22.986C101.771 24.0728 102.22 24.6162 103.118 24.6162C103.606 24.6162 103.968 24.4666 104.205 24.1673C104.441 23.868 104.559 23.3404 104.559 22.5843V19.4182H104.512C104.055 20.3791 103.267 20.8595 102.149 20.8595C101.204 20.8595 100.487 20.5366 99.9991 19.8908C99.5108 19.245 99.2666 18.3078 99.2666 17.0791V14.1257C99.2666 12.8026 99.6053 11.7788 100.283 11.0542C100.96 10.3296 101.936 9.96736 103.212 9.96736C104.488 9.96736 105.465 10.3296 106.142 11.0542C106.819 11.7788 107.158 12.8026 107.158 14.1257V22.6788C107.158 25.5456 105.835 26.9789 103.189 26.9789ZM103.212 18.4968C104.11 18.4968 104.559 17.9534 104.559 16.8665V13.9367C104.559 12.8656 104.11 12.3301 103.212 12.3301C102.315 12.3301 101.866 12.8656 101.866 13.9367V16.8665C101.866 17.9534 102.315 18.4968 103.212 18.4968ZM114.326 26.9789C113.066 26.9789 112.105 26.6245 111.444 25.9157C110.782 25.1912 110.452 24.1594 110.452 22.8206V21.5211H112.909V23.0096C112.909 24.0807 113.358 24.6162 114.255 24.6162C115.153 24.6162 115.602 24.0807 115.602 23.0096V19.3001C115.602 18.2133 115.153 17.6698 114.255 17.6698C113.358 17.6698 112.909 18.2133 112.909 19.3001V19.4419H110.452L110.924 10.2036H117.776V12.5664H113.24L113.027 16.5121H113.074C113.562 15.7088 114.311 15.3071 115.319 15.3071C116.264 15.3071 116.98 15.63 117.469 16.2758C117.957 16.9216 118.201 17.8588 118.201 19.0875V22.8206C118.201 24.1594 117.87 25.1912 117.209 25.9157C116.547 26.6245 115.586 26.9789 114.326 26.9789Z" fill="white"/>
<path d="M55.7535 34.6181C55.7535 34.5342 55.7404 34.4601 55.714 34.3959C55.6893 34.33 55.6449 34.2708 55.5807 34.2181C55.5181 34.1654 55.4309 34.1152 55.3189 34.0674C55.2086 34.0197 55.0687 33.9711 54.8991 33.9218C54.7213 33.8691 54.5608 33.8106 54.4176 33.7464C54.2744 33.6806 54.1517 33.6057 54.0496 33.5217C53.9476 33.4378 53.8694 33.3414 53.8151 33.2328C53.7607 33.1241 53.7336 32.9998 53.7336 32.8599C53.7336 32.72 53.7624 32.5908 53.82 32.4722C53.8776 32.3537 53.9599 32.2508 54.0669 32.1635C54.1756 32.0746 54.3048 32.0055 54.4546 31.9561C54.6044 31.9067 54.7715 31.882 54.9559 31.882C55.2259 31.882 55.4547 31.9339 55.6424 32.0376C55.8317 32.1397 55.9758 32.2738 56.0745 32.4401C56.1733 32.6047 56.2227 32.7809 56.2227 32.9686H55.7486C55.7486 32.8336 55.7198 32.7142 55.6622 32.6105C55.6045 32.5051 55.5173 32.4228 55.4004 32.3636C55.2835 32.3027 55.1354 32.2722 54.9559 32.2722C54.7863 32.2722 54.6464 32.2977 54.5361 32.3487C54.4258 32.3998 54.3435 32.4689 54.2892 32.5562C54.2365 32.6434 54.2102 32.743 54.2102 32.855C54.2102 32.9307 54.2258 32.9998 54.2571 33.0624C54.29 33.1233 54.3402 33.1801 54.4077 33.2328C54.4769 33.2855 54.5641 33.334 54.6695 33.3785C54.7765 33.4229 54.9041 33.4657 55.0522 33.5069C55.2564 33.5645 55.4325 33.6287 55.5807 33.6995C55.7288 33.7703 55.8507 33.8501 55.9461 33.939C56.0433 34.0263 56.1149 34.1259 56.161 34.2378C56.2087 34.3481 56.2326 34.4732 56.2326 34.6132C56.2326 34.7597 56.203 34.8922 56.1437 35.0108C56.0844 35.1293 55.9996 35.2305 55.8893 35.3145C55.779 35.3984 55.6465 35.4635 55.4918 35.5096C55.3387 35.554 55.1675 35.5762 54.9781 35.5762C54.8119 35.5762 54.6481 35.5532 54.4867 35.5071C54.327 35.461 54.1813 35.3919 54.0496 35.2997C53.9196 35.2075 53.8151 35.0939 53.736 34.9589C53.6587 34.8223 53.62 34.6642 53.62 34.4848H54.0941C54.0941 34.6082 54.118 34.7144 54.1657 34.8033C54.2134 34.8906 54.2785 34.963 54.3608 35.0206C54.4447 35.0782 54.5394 35.1211 54.6448 35.149C54.7518 35.1754 54.8629 35.1885 54.9781 35.1885C55.1444 35.1885 55.2852 35.1655 55.4004 35.1194C55.5156 35.0733 55.6029 35.0075 55.6622 34.9219C55.7231 34.8362 55.7535 34.735 55.7535 34.6181ZM56.6499 34.2205V34.1638C56.6499 33.9711 56.6779 33.7925 56.7339 33.6279C56.7898 33.4616 56.8705 33.3176 56.9759 33.1958C57.0812 33.0723 57.2088 32.9768 57.3586 32.9093C57.5084 32.8402 57.6764 32.8056 57.8624 32.8056C58.0501 32.8056 58.2188 32.8402 58.3686 32.9093C58.5201 32.9768 58.6485 33.0723 58.7538 33.1958C58.8608 33.3176 58.9423 33.4616 58.9983 33.6279C59.0543 33.7925 59.0823 33.9711 59.0823 34.1638V34.2205C59.0823 34.4132 59.0543 34.5918 58.9983 34.7564C58.9423 34.921 58.8608 35.0651 58.7538 35.1885C58.6485 35.3104 58.5209 35.4059 58.3711 35.475C58.2229 35.5425 58.055 35.5762 57.8673 35.5762C57.6797 35.5762 57.5109 35.5425 57.3611 35.475C57.2113 35.4059 57.0829 35.3104 56.9759 35.1885C56.8705 35.0651 56.7898 34.921 56.7339 34.7564C56.6779 34.5918 56.6499 34.4132 56.6499 34.2205ZM57.1068 34.1638V34.2205C57.1068 34.3539 57.1224 34.4798 57.1537 34.5984C57.1849 34.7152 57.2319 34.819 57.2944 34.9095C57.3586 35.0001 57.4385 35.0717 57.534 35.1243C57.6294 35.1754 57.7406 35.2009 57.8673 35.2009C57.9924 35.2009 58.1019 35.1754 58.1958 35.1243C58.2912 35.0717 58.3703 35.0001 58.4328 34.9095C58.4954 34.819 58.5423 34.7152 58.5736 34.5984C58.6065 34.4798 58.623 34.3539 58.623 34.2205V34.1638C58.623 34.0321 58.6065 33.9078 58.5736 33.7909C58.5423 33.6723 58.4946 33.5678 58.4303 33.4773C58.3678 33.3851 58.2888 33.3126 58.1933 33.26C58.0994 33.2073 57.9891 33.1809 57.8624 33.1809C57.7373 33.1809 57.627 33.2073 57.5315 33.26C57.4377 33.3126 57.3586 33.3851 57.2944 33.4773C57.2319 33.5678 57.1849 33.6723 57.1537 33.7909C57.1224 33.9078 57.1068 34.0321 57.1068 34.1638ZM60.3367 35.5269H59.8799V32.5735C59.8799 32.3809 59.9144 32.2187 59.9836 32.087C60.0544 31.9536 60.1556 31.8532 60.2873 31.7857C60.419 31.7166 60.5754 31.682 60.7565 31.682C60.8092 31.682 60.8619 31.6853 60.9146 31.6919C60.9689 31.6985 61.0216 31.7084 61.0726 31.7215L61.0479 32.0944C61.0133 32.0862 60.9738 32.0804 60.9294 32.0771C60.8866 32.0738 60.8438 32.0722 60.801 32.0722C60.7038 32.0722 60.6199 32.0919 60.5491 32.1314C60.4799 32.1693 60.4273 32.2253 60.391 32.2994C60.3548 32.3734 60.3367 32.4648 60.3367 32.5735V35.5269ZM60.9047 32.855V33.2056H59.4576V32.855H60.9047ZM62.532 32.855V33.2056H61.0874V32.855H62.532ZM61.5763 32.2055H62.0332V34.8651C62.0332 34.9556 62.0472 35.0239 62.0752 35.07C62.1032 35.1161 62.1394 35.1466 62.1838 35.1614C62.2283 35.1762 62.276 35.1836 62.327 35.1836C62.3649 35.1836 62.4044 35.1803 62.4456 35.1737C62.4884 35.1655 62.5205 35.1589 62.5419 35.154L62.5444 35.5269C62.5081 35.5384 62.4604 35.5491 62.4011 35.559C62.3435 35.5705 62.2735 35.5762 62.1912 35.5762C62.0793 35.5762 61.9764 35.554 61.8826 35.5096C61.7887 35.4651 61.7138 35.391 61.6578 35.2873C61.6035 35.182 61.5763 35.0404 61.5763 34.8626V32.2055ZM63.7445 35.0527L64.431 32.855H64.7322L64.673 33.2921L63.9741 35.5269H63.6803L63.7445 35.0527ZM63.2827 32.855L63.8679 35.0774L63.9099 35.5269H63.6012L62.8259 32.855H63.2827ZM65.3891 35.0601L65.9472 32.855H66.4015L65.6261 35.5269H65.3199L65.3891 35.0601ZM64.7989 32.855L65.4706 35.0157L65.5471 35.5269H65.2557L64.5371 33.2871L64.4779 32.855H64.7989ZM68.4462 35.07V33.6946C68.4462 33.5892 68.4248 33.4978 68.382 33.4205C68.3408 33.3414 68.2783 33.2805 68.1943 33.2377C68.1104 33.1949 68.0066 33.1735 67.8832 33.1735C67.7679 33.1735 67.6667 33.1933 67.5794 33.2328C67.4938 33.2723 67.4263 33.3242 67.3769 33.3884C67.3292 33.4526 67.3053 33.5217 67.3053 33.5958H66.8485C66.8485 33.5003 66.8732 33.4056 66.9226 33.3118C66.972 33.218 67.0428 33.1332 67.1349 33.0575C67.2288 32.9801 67.3407 32.9192 67.4708 32.8747C67.6025 32.8286 67.749 32.8056 67.9103 32.8056C68.1046 32.8056 68.2758 32.8385 68.424 32.9044C68.5738 32.9702 68.6907 33.0698 68.7746 33.2032C68.8602 33.3349 68.903 33.5003 68.903 33.6995V34.9441C68.903 35.033 68.9104 35.1276 68.9253 35.2281C68.9417 35.3285 68.9656 35.4149 68.9969 35.4873V35.5269H68.5203C68.4972 35.4742 68.4791 35.4042 68.4659 35.317C68.4528 35.2281 68.4462 35.1457 68.4462 35.07ZM68.5252 33.9069L68.5302 34.228H68.0684C67.9383 34.228 67.8223 34.2387 67.7202 34.2601C67.6181 34.2798 67.5325 34.3103 67.4634 34.3514C67.3942 34.3926 67.3416 34.4444 67.3053 34.507C67.2691 34.5679 67.251 34.6395 67.251 34.7218C67.251 34.8058 67.2699 34.8823 67.3078 34.9515C67.3457 35.0206 67.4025 35.0758 67.4782 35.1169C67.5556 35.1564 67.6502 35.1762 67.7622 35.1762C67.9021 35.1762 68.0256 35.1466 68.1326 35.0873C68.2396 35.028 68.3244 34.9556 68.3869 34.87C68.4511 34.7844 68.4857 34.7013 68.4906 34.6206L68.6857 34.8404C68.6742 34.9095 68.6429 34.9861 68.5919 35.07C68.5409 35.154 68.4725 35.2346 68.3869 35.312C68.303 35.3877 68.2025 35.4511 68.0857 35.5022C67.9704 35.5515 67.8404 35.5762 67.6955 35.5762C67.5144 35.5762 67.3555 35.5408 67.2189 35.4701C67.0839 35.3993 66.9786 35.3046 66.9028 35.1861C66.8287 35.0659 66.7917 34.9317 66.7917 34.7836C66.7917 34.6403 66.8197 34.5144 66.8757 34.4058C66.9316 34.2955 67.0123 34.2041 67.1177 34.1316C67.223 34.0576 67.3498 34.0016 67.4979 33.9637C67.6461 33.9259 67.8116 33.9069 67.9943 33.9069H68.5252ZM70.0785 33.2748V35.5269H69.6216V32.855H70.0661L70.0785 33.2748ZM70.9131 32.8402L70.9106 33.2649C70.8728 33.2567 70.8366 33.2517 70.802 33.2501C70.7691 33.2468 70.7312 33.2451 70.6884 33.2451C70.583 33.2451 70.49 33.2616 70.4094 33.2945C70.3287 33.3275 70.2604 33.3735 70.2044 33.4328C70.1484 33.4921 70.104 33.5629 70.0711 33.6452C70.0398 33.7258 70.0192 33.8147 70.0093 33.9119L69.8809 33.986C69.8809 33.8246 69.8965 33.6732 69.9278 33.5316C69.9608 33.39 70.011 33.2649 70.0785 33.1562C70.146 33.0459 70.2316 32.9603 70.3353 32.8994C70.4406 32.8369 70.5658 32.8056 70.7106 32.8056C70.7436 32.8056 70.7814 32.8097 70.8242 32.8179C70.867 32.8245 70.8967 32.8319 70.9131 32.8402ZM72.3947 35.5762C72.2087 35.5762 72.04 35.545 71.8885 35.4824C71.7387 35.4182 71.6095 35.3285 71.5008 35.2132C71.3938 35.098 71.3115 34.9614 71.2539 34.8033C71.1963 34.6453 71.1675 34.4724 71.1675 34.2848V34.181C71.1675 33.9637 71.1996 33.7703 71.2638 33.6007C71.328 33.4295 71.4152 33.2846 71.5255 33.1661C71.6358 33.0476 71.7609 32.9579 71.9009 32.897C72.0408 32.836 72.1857 32.8056 72.3355 32.8056C72.5265 32.8056 72.6911 32.8385 72.8294 32.9044C72.9693 32.9702 73.0837 33.0624 73.1726 33.1809C73.2615 33.2978 73.3274 33.4361 73.3702 33.5958C73.413 33.7538 73.4344 33.9267 73.4344 34.1144V34.3193H71.4391V33.9464H72.9775V33.9119C72.9709 33.7933 72.9462 33.6781 72.9034 33.5662C72.8623 33.4542 72.7964 33.362 72.7059 33.2896C72.6153 33.2172 72.4919 33.1809 72.3355 33.1809C72.2318 33.1809 72.1363 33.2032 72.049 33.2476C71.9618 33.2904 71.8869 33.3546 71.8243 33.4402C71.7618 33.5258 71.7132 33.6304 71.6786 33.7538C71.6441 33.8773 71.6268 34.0197 71.6268 34.181V34.2848C71.6268 34.4115 71.6441 34.5309 71.6786 34.6428C71.7148 34.7531 71.7667 34.8502 71.8342 34.9342C71.9033 35.0182 71.9865 35.084 72.0836 35.1318C72.1824 35.1795 72.2943 35.2034 72.4194 35.2034C72.5808 35.2034 72.7174 35.1704 72.8294 35.1046C72.9413 35.0387 73.0393 34.9507 73.1232 34.8404L73.3998 35.0601C73.3422 35.1474 73.2689 35.2305 73.18 35.3095C73.0911 35.3886 72.9816 35.4528 72.8516 35.5022C72.7232 35.5515 72.5709 35.5762 72.3947 35.5762ZM76.2643 35.5269H75.5136L75.5185 35.1392H76.2643C76.5211 35.1392 76.7351 35.0857 76.9063 34.9787C77.0775 34.87 77.2059 34.7185 77.2916 34.5243C77.3788 34.3284 77.4224 34.0995 77.4224 33.8378V33.618C77.4224 33.4122 77.3977 33.2295 77.3483 33.0698C77.299 32.9085 77.2265 32.7727 77.131 32.6624C77.0356 32.5504 76.9187 32.4656 76.7804 32.408C76.6437 32.3504 76.4865 32.3216 76.3087 32.3216H75.4988V31.9314H76.3087C76.5441 31.9314 76.759 31.9709 76.9532 32.05C77.1475 32.1273 77.3146 32.2401 77.4545 32.3883C77.5961 32.5348 77.7048 32.7126 77.7805 32.9216C77.8562 33.1291 77.8941 33.3628 77.8941 33.623V33.8378C77.8941 34.0979 77.8562 34.3325 77.7805 34.5416C77.7048 34.749 77.5953 34.926 77.4521 35.0725C77.3105 35.219 77.1393 35.3318 76.9384 35.4108C76.7392 35.4882 76.5145 35.5269 76.2643 35.5269ZM75.7679 31.9314V35.5269H75.2913V31.9314H75.7679ZM79.6498 35.5762C79.4638 35.5762 79.2951 35.545 79.1436 35.4824C78.9938 35.4182 78.8646 35.3285 78.7559 35.2132C78.6489 35.098 78.5666 34.9614 78.509 34.8033C78.4513 34.6453 78.4225 34.4724 78.4225 34.2848V34.181C78.4225 33.9637 78.4546 33.7703 78.5188 33.6007C78.583 33.4295 78.6703 33.2846 78.7806 33.1661C78.8909 33.0476 79.016 32.9579 79.1559 32.897C79.2959 32.836 79.4407 32.8056 79.5906 32.8056C79.7815 32.8056 79.9461 32.8385 80.0844 32.9044C80.2244 32.9702 80.3388 33.0624 80.4277 33.1809C80.5166 33.2978 80.5824 33.4361 80.6252 33.5958C80.668 33.7538 80.6894 33.9267 80.6894 34.1144V34.3193H78.6942V33.9464H80.2326V33.9119C80.226 33.7933 80.2013 33.6781 80.1585 33.5662C80.1174 33.4542 80.0515 33.362 79.961 33.2896C79.8704 33.2172 79.7469 33.1809 79.5906 33.1809C79.4868 33.1809 79.3914 33.2032 79.3041 33.2476C79.2169 33.2904 79.1419 33.3546 79.0794 33.4402C79.0168 33.5258 78.9683 33.6304 78.9337 33.7538C78.8991 33.8773 78.8818 34.0197 78.8818 34.181V34.2848C78.8818 34.4115 78.8991 34.5309 78.9337 34.6428C78.9699 34.7531 79.0218 34.8502 79.0893 34.9342C79.1584 35.0182 79.2415 35.084 79.3387 35.1318C79.4375 35.1795 79.5494 35.2034 79.6745 35.2034C79.8358 35.2034 79.9725 35.1704 80.0844 35.1046C80.1964 35.0387 80.2943 34.9507 80.3783 34.8404L80.6549 35.0601C80.5972 35.1474 80.524 35.2305 80.4351 35.3095C80.3462 35.3886 80.2367 35.4528 80.1067 35.5022C79.9782 35.5515 79.826 35.5762 79.6498 35.5762ZM82.0007 35.1145L82.7316 32.855H83.1983L82.2377 35.5269H81.9315L82.0007 35.1145ZM81.3907 32.855L82.1439 35.1268L82.1958 35.5269H81.8896L80.9216 32.855H81.3907ZM84.7121 35.5762C84.526 35.5762 84.3573 35.545 84.2058 35.4824C84.056 35.4182 83.9268 35.3285 83.8182 35.2132C83.7111 35.098 83.6288 34.9614 83.5712 34.8033C83.5136 34.6453 83.4848 34.4724 83.4848 34.2848V34.181C83.4848 33.9637 83.5169 33.7703 83.5811 33.6007C83.6453 33.4295 83.7325 33.2846 83.8428 33.1661C83.9531 33.0476 84.0783 32.9579 84.2182 32.897C84.3581 32.836 84.503 32.8056 84.6528 32.8056C84.8438 32.8056 85.0084 32.8385 85.1467 32.9044C85.2866 32.9702 85.401 33.0624 85.4899 33.1809C85.5788 33.2978 85.6447 33.4361 85.6875 33.5958C85.7303 33.7538 85.7517 33.9267 85.7517 34.1144V34.3193H83.7564V33.9464H85.2948V33.9119C85.2883 33.7933 85.2636 33.6781 85.2208 33.5662C85.1796 33.4542 85.1138 33.362 85.0232 33.2896C84.9327 33.2172 84.8092 33.1809 84.6528 33.1809C84.5491 33.1809 84.4536 33.2032 84.3664 33.2476C84.2791 33.2904 84.2042 33.3546 84.1416 33.4402C84.0791 33.5258 84.0305 33.6304 83.9959 33.7538C83.9614 33.8773 83.9441 34.0197 83.9441 34.181V34.2848C83.9441 34.4115 83.9614 34.5309 83.9959 34.6428C84.0322 34.7531 84.084 34.8502 84.1515 34.9342C84.2207 35.0182 84.3038 35.084 84.4009 35.1318C84.4997 35.1795 84.6116 35.2034 84.7368 35.2034C84.8981 35.2034 85.0347 35.1704 85.1467 35.1046C85.2586 35.0387 85.3566 34.9507 85.4405 34.8404L85.7171 35.0601C85.6595 35.1474 85.5862 35.2305 85.4973 35.3095C85.4084 35.3886 85.299 35.4528 85.1689 35.5022C85.0405 35.5515 84.8882 35.5762 84.7121 35.5762ZM86.7814 31.7339V35.5269H86.3221V31.7339H86.7814ZM87.3938 34.2205V34.1638C87.3938 33.9711 87.4218 33.7925 87.4778 33.6279C87.5338 33.4616 87.6144 33.3176 87.7198 33.1958C87.8251 33.0723 87.9527 32.9768 88.1025 32.9093C88.2524 32.8402 88.4203 32.8056 88.6063 32.8056C88.794 32.8056 88.9627 32.8402 89.1125 32.9093C89.264 32.9768 89.3924 33.0723 89.4977 33.1958C89.6048 33.3176 89.6862 33.4616 89.7422 33.6279C89.7982 33.7925 89.8262 33.9711 89.8262 34.1638V34.2205C89.8262 34.4132 89.7982 34.5918 89.7422 34.7564C89.6862 34.921 89.6048 35.0651 89.4977 35.1885C89.3924 35.3104 89.2648 35.4059 89.115 35.475C88.9668 35.5425 88.7989 35.5762 88.6112 35.5762C88.4236 35.5762 88.2548 35.5425 88.105 35.475C87.9552 35.4059 87.8268 35.3104 87.7198 35.1885C87.6144 35.0651 87.5338 34.921 87.4778 34.7564C87.4218 34.5918 87.3938 34.4132 87.3938 34.2205ZM87.8507 34.1638V34.2205C87.8507 34.3539 87.8663 34.4798 87.8976 34.5984C87.9289 34.7152 87.9758 34.819 88.0383 34.9095C88.1025 35.0001 88.1824 35.0717 88.2779 35.1243C88.3734 35.1754 88.4845 35.2009 88.6112 35.2009C88.7364 35.2009 88.8458 35.1754 88.9397 35.1243C89.0352 35.0717 89.1142 35.0001 89.1767 34.9095C89.2393 34.819 89.2862 34.7152 89.3175 34.5984C89.3504 34.4798 89.3669 34.3539 89.3669 34.2205V34.1638C89.3669 34.0321 89.3504 33.9078 89.3175 33.7909C89.2862 33.6723 89.2385 33.5678 89.1743 33.4773C89.1117 33.3851 89.0327 33.3126 88.9372 33.26C88.8434 33.2073 88.7331 33.1809 88.6063 33.1809C88.4812 33.1809 88.3709 33.2073 88.2754 33.26C88.1816 33.3126 88.1025 33.3851 88.0383 33.4773C87.9758 33.5678 87.9289 33.6723 87.8976 33.7909C87.8663 33.9078 87.8507 34.0321 87.8507 34.1638ZM90.8559 33.3686V36.5541H90.3966V32.855H90.8164L90.8559 33.3686ZM92.6561 34.1687V34.2205C92.6561 34.4148 92.6331 34.5951 92.587 34.7613C92.5409 34.926 92.4734 35.0692 92.3845 35.191C92.2972 35.3128 92.1894 35.4075 92.061 35.475C91.9326 35.5425 91.7852 35.5762 91.619 35.5762C91.4494 35.5762 91.2996 35.5483 91.1695 35.4923C91.0395 35.4363 90.9292 35.3548 90.8386 35.2478C90.7481 35.1408 90.6756 35.0124 90.6213 34.8626C90.5686 34.7128 90.5324 34.544 90.5127 34.3564V34.0798C90.5324 33.8822 90.5695 33.7053 90.6238 33.5489C90.6781 33.3925 90.7497 33.2591 90.8386 33.1488C90.9292 33.0369 91.0386 32.9521 91.1671 32.8945C91.2955 32.8352 91.4436 32.8056 91.6115 32.8056C91.7795 32.8056 91.9285 32.8385 92.0585 32.9044C92.1886 32.9686 92.298 33.0608 92.3869 33.1809C92.4758 33.3011 92.5425 33.4452 92.587 33.6131C92.6331 33.7794 92.6561 33.9646 92.6561 34.1687ZM92.1968 34.2205V34.1687C92.1968 34.0353 92.1828 33.9102 92.1548 33.7933C92.1268 33.6748 92.0832 33.5711 92.0239 33.4822C91.9663 33.3917 91.8922 33.3209 91.8017 33.2698C91.7111 33.2172 91.6033 33.1908 91.4782 33.1908C91.363 33.1908 91.2625 33.2106 91.1769 33.2501C91.093 33.2896 91.0214 33.3431 90.9621 33.4106C90.9028 33.4764 90.8543 33.5522 90.8164 33.6378C90.7802 33.7217 90.753 33.809 90.7349 33.8995V34.5391C90.7678 34.6543 90.8139 34.763 90.8732 34.8651C90.9325 34.9655 91.0115 35.047 91.1103 35.1095C91.209 35.1704 91.3333 35.2009 91.4831 35.2009C91.6066 35.2009 91.7128 35.1754 91.8017 35.1243C91.8922 35.0717 91.9663 35.0001 92.0239 34.9095C92.0832 34.819 92.1268 34.7152 92.1548 34.5984C92.1828 34.4798 92.1968 34.3539 92.1968 34.2205ZM93.6932 33.3859V35.5269H93.2339V32.855H93.6686L93.6932 33.3859ZM93.5994 34.0897L93.387 34.0823C93.3887 33.8995 93.4126 33.7308 93.4587 33.576C93.5047 33.4196 93.5731 33.2838 93.6636 33.1686C93.7542 33.0533 93.8669 32.9645 94.0019 32.9019C94.1369 32.8377 94.2933 32.8056 94.4711 32.8056C94.5962 32.8056 94.7115 32.8237 94.8168 32.8599C94.9222 32.8945 95.0135 32.9496 95.0909 33.0254C95.1683 33.1011 95.2284 33.1982 95.2712 33.3168C95.314 33.4353 95.3354 33.5785 95.3354 33.7464V35.5269H94.8786V33.7686C94.8786 33.6287 94.8547 33.5168 94.8069 33.4328C94.7608 33.3489 94.695 33.2879 94.6094 33.2501C94.5238 33.2106 94.4234 33.1908 94.3081 33.1908C94.1731 33.1908 94.0604 33.2147 93.9698 33.2624C93.8793 33.3102 93.8068 33.376 93.7525 33.46C93.6982 33.5439 93.6587 33.6402 93.634 33.7489C93.6109 33.8559 93.5994 33.9695 93.5994 34.0897ZM95.3305 33.8378L95.0242 33.9316C95.0259 33.7851 95.0498 33.6444 95.0959 33.5094C95.1436 33.3744 95.2119 33.2542 95.3008 33.1488C95.3914 33.0435 95.5025 32.9603 95.6342 32.8994C95.7659 32.8369 95.9165 32.8056 96.0861 32.8056C96.2293 32.8056 96.3561 32.8245 96.4664 32.8624C96.5783 32.9002 96.6722 32.9587 96.7479 33.0377C96.8253 33.1151 96.8837 33.2147 96.9232 33.3365C96.9627 33.4583 96.9825 33.6032 96.9825 33.7711V35.5269H96.5232V33.7662C96.5232 33.6164 96.4993 33.5003 96.4516 33.418C96.4055 33.334 96.3396 33.2756 96.254 33.2427C96.17 33.2081 96.0696 33.1908 95.9527 33.1908C95.8523 33.1908 95.7634 33.2081 95.686 33.2427C95.6087 33.2772 95.5436 33.325 95.491 33.3859C95.4383 33.4452 95.3979 33.5135 95.37 33.5909C95.3436 33.6682 95.3305 33.7505 95.3305 33.8378ZM98.7827 35.5762C98.5966 35.5762 98.4279 35.545 98.2764 35.4824C98.1266 35.4182 97.9974 35.3285 97.8887 35.2132C97.7817 35.098 97.6994 34.9614 97.6418 34.8033C97.5842 34.6453 97.5554 34.4724 97.5554 34.2848V34.181C97.5554 33.9637 97.5875 33.7703 97.6517 33.6007C97.7159 33.4295 97.8031 33.2846 97.9134 33.1661C98.0237 33.0476 98.1488 32.9579 98.2888 32.897C98.4287 32.836 98.5736 32.8056 98.7234 32.8056C98.9144 32.8056 99.079 32.8385 99.2173 32.9044C99.3572 32.9702 99.4716 33.0624 99.5605 33.1809C99.6494 33.2978 99.7153 33.4361 99.7581 33.5958C99.8009 33.7538 99.8223 33.9267 99.8223 34.1144V34.3193H97.827V33.9464H99.3654V33.9119C99.3588 33.7933 99.3342 33.6781 99.2914 33.5662C99.2502 33.4542 99.1843 33.362 99.0938 33.2896C99.0033 33.2172 98.8798 33.1809 98.7234 33.1809C98.6197 33.1809 98.5242 33.2032 98.4369 33.2476C98.3497 33.2904 98.2748 33.3546 98.2122 33.4402C98.1497 33.5258 98.1011 33.6304 98.0665 33.7538C98.032 33.8773 98.0147 34.0197 98.0147 34.181V34.2848C98.0147 34.4115 98.032 34.5309 98.0665 34.6428C98.1028 34.7531 98.1546 34.8502 98.2221 34.9342C98.2912 35.0182 98.3744 35.084 98.4715 35.1318C98.5703 35.1795 98.6822 35.2034 98.8074 35.2034C98.9687 35.2034 99.1053 35.1704 99.2173 35.1046C99.3292 35.0387 99.4272 34.9507 99.5111 34.8404L99.7877 35.0601C99.7301 35.1474 99.6568 35.2305 99.5679 35.3095C99.479 35.3886 99.3696 35.4528 99.2395 35.5022C99.1111 35.5515 98.9588 35.5762 98.7827 35.5762ZM100.812 33.4254V35.5269H100.356V32.855H100.788L100.812 33.4254ZM100.704 34.0897L100.514 34.0823C100.515 33.8995 100.543 33.7308 100.595 33.576C100.648 33.4196 100.722 33.2838 100.817 33.1686C100.913 33.0533 101.027 32.9645 101.158 32.9019C101.292 32.8377 101.439 32.8056 101.6 32.8056C101.732 32.8056 101.85 32.8237 101.956 32.8599C102.061 32.8945 102.151 32.9505 102.225 33.0278C102.301 33.1052 102.358 33.2056 102.398 33.3291C102.437 33.4509 102.457 33.5999 102.457 33.7761V35.5269H101.998V33.7711C101.998 33.6312 101.977 33.5192 101.936 33.4353C101.895 33.3497 101.835 33.2879 101.756 33.2501C101.677 33.2106 101.58 33.1908 101.464 33.1908C101.351 33.1908 101.247 33.2147 101.153 33.2624C101.061 33.3102 100.981 33.376 100.914 33.46C100.848 33.5439 100.796 33.6402 100.758 33.7489C100.722 33.8559 100.704 33.9695 100.704 34.0897ZM104.27 32.855V33.2056H102.825V32.855H104.27ZM103.314 32.2055H103.771V34.8651C103.771 34.9556 103.785 35.0239 103.813 35.07C103.841 35.1161 103.877 35.1466 103.921 35.1614C103.966 35.1762 104.014 35.1836 104.065 35.1836C104.103 35.1836 104.142 35.1803 104.183 35.1737C104.226 35.1655 104.258 35.1589 104.28 35.154L104.282 35.5269C104.246 35.5384 104.198 35.5491 104.139 35.559C104.081 35.5705 104.011 35.5762 103.929 35.5762C103.817 35.5762 103.714 35.554 103.62 35.5096C103.526 35.4651 103.451 35.391 103.395 35.2873C103.341 35.182 103.314 35.0404 103.314 34.8626V32.2055ZM108.3 34.3835H108.774C108.749 34.6107 108.684 34.814 108.579 34.9935C108.473 35.1729 108.324 35.3153 108.132 35.4207C107.939 35.5244 107.699 35.5762 107.411 35.5762C107.2 35.5762 107.008 35.5367 106.835 35.4577C106.664 35.3787 106.517 35.2667 106.393 35.1219C106.27 34.9754 106.174 34.8 106.107 34.5959C106.041 34.3901 106.008 34.1613 106.008 33.9094V33.5513C106.008 33.2995 106.041 33.0715 106.107 32.8673C106.174 32.6615 106.271 32.4854 106.396 32.3389C106.523 32.1924 106.675 32.0796 106.853 32.0006C107.03 31.9215 107.23 31.882 107.453 31.882C107.724 31.882 107.954 31.9331 108.142 32.0351C108.329 32.1372 108.475 32.2788 108.579 32.4599C108.684 32.6393 108.749 32.8476 108.774 33.0846H108.3C108.277 32.9167 108.234 32.7727 108.171 32.6525C108.109 32.5307 108.02 32.4368 107.905 32.371C107.789 32.3051 107.639 32.2722 107.453 32.2722C107.293 32.2722 107.152 32.3027 107.03 32.3636C106.91 32.4245 106.809 32.5109 106.727 32.6229C106.646 32.7348 106.585 32.869 106.544 33.0254C106.503 33.1818 106.482 33.3554 106.482 33.5464V33.9094C106.482 34.0856 106.5 34.251 106.537 34.4058C106.574 34.5605 106.631 34.6963 106.707 34.8132C106.783 34.9301 106.879 35.0223 106.996 35.0898C107.113 35.1556 107.251 35.1885 107.411 35.1885C107.613 35.1885 107.775 35.1564 107.895 35.0922C108.015 35.028 108.105 34.9358 108.166 34.8157C108.229 34.6955 108.273 34.5514 108.3 34.3835ZM109.233 34.2205V34.1638C109.233 33.9711 109.261 33.7925 109.317 33.6279C109.373 33.4616 109.454 33.3176 109.559 33.1958C109.664 33.0723 109.792 32.9768 109.942 32.9093C110.092 32.8402 110.26 32.8056 110.446 32.8056C110.633 32.8056 110.802 32.8402 110.952 32.9093C111.103 32.9768 111.232 33.0723 111.337 33.1958C111.444 33.3176 111.526 33.4616 111.582 33.6279C111.637 33.7925 111.665 33.9711 111.665 34.1638V34.2205C111.665 34.4132 111.637 34.5918 111.582 34.7564C111.526 34.921 111.444 35.0651 111.337 35.1885C111.232 35.3104 111.104 35.4059 110.954 35.475C110.806 35.5425 110.638 35.5762 110.451 35.5762C110.263 35.5762 110.094 35.5425 109.944 35.475C109.794 35.4059 109.666 35.3104 109.559 35.1885C109.454 35.0651 109.373 34.921 109.317 34.7564C109.261 34.5918 109.233 34.4132 109.233 34.2205ZM109.69 34.1638V34.2205C109.69 34.3539 109.706 34.4798 109.737 34.5984C109.768 34.7152 109.815 34.819 109.878 34.9095C109.942 35.0001 110.022 35.0717 110.117 35.1243C110.213 35.1754 110.324 35.2009 110.451 35.2009C110.576 35.2009 110.685 35.1754 110.779 35.1243C110.874 35.0717 110.953 35.0001 111.016 34.9095C111.079 34.819 111.125 34.7152 111.157 34.5984C111.19 34.4798 111.206 34.3539 111.206 34.2205V34.1638C111.206 34.0321 111.19 33.9078 111.157 33.7909C111.125 33.6723 111.078 33.5678 111.014 33.4773C110.951 33.3851 110.872 33.3126 110.776 33.26C110.683 33.2073 110.572 33.1809 110.446 33.1809C110.32 33.1809 110.21 33.2073 110.115 33.26C110.021 33.3126 109.942 33.3851 109.878 33.4773C109.815 33.5678 109.768 33.6723 109.737 33.7909C109.706 33.9078 109.69 34.0321 109.69 34.1638ZM112.695 33.2748V35.5269H112.238V32.855H112.683L112.695 33.2748ZM113.53 32.8402L113.527 33.2649C113.49 33.2567 113.453 33.2517 113.419 33.2501C113.386 33.2468 113.348 33.2451 113.305 33.2451C113.2 33.2451 113.107 33.2616 113.026 33.2945C112.945 33.3275 112.877 33.3735 112.821 33.4328C112.765 33.4921 112.721 33.5629 112.688 33.6452C112.657 33.7258 112.636 33.8147 112.626 33.9119L112.498 33.986C112.498 33.8246 112.513 33.6732 112.545 33.5316C112.577 33.39 112.628 33.2649 112.695 33.1562C112.763 33.0459 112.848 32.9603 112.952 32.8994C113.057 32.8369 113.182 32.8056 113.327 32.8056C113.36 32.8056 113.398 32.8097 113.441 32.8179C113.484 32.8245 113.513 32.8319 113.53 32.8402ZM114.409 33.3686V36.5541H113.95V32.855H114.369L114.409 33.3686ZM116.209 34.1687V34.2205C116.209 34.4148 116.186 34.5951 116.14 34.7613C116.094 34.926 116.026 35.0692 115.938 35.191C115.85 35.3128 115.742 35.4075 115.614 35.475C115.486 35.5425 115.338 35.5762 115.172 35.5762C115.002 35.5762 114.853 35.5483 114.723 35.4923C114.593 35.4363 114.482 35.3548 114.392 35.2478C114.301 35.1408 114.229 35.0124 114.174 34.8626C114.122 34.7128 114.085 34.544 114.066 34.3564V34.0798C114.085 33.8822 114.123 33.7053 114.177 33.5489C114.231 33.3925 114.303 33.2591 114.392 33.1488C114.482 33.0369 114.592 32.9521 114.72 32.8945C114.849 32.8352 114.997 32.8056 115.165 32.8056C115.333 32.8056 115.481 32.8385 115.612 32.9044C115.742 32.9686 115.851 33.0608 115.94 33.1809C116.029 33.3011 116.096 33.4452 116.14 33.6131C116.186 33.7794 116.209 33.9646 116.209 34.1687ZM115.75 34.2205V34.1687C115.75 34.0353 115.736 33.9102 115.708 33.7933C115.68 33.6748 115.636 33.5711 115.577 33.4822C115.519 33.3917 115.445 33.3209 115.355 33.2698C115.264 33.2172 115.156 33.1908 115.031 33.1908C114.916 33.1908 114.816 33.2106 114.73 33.2501C114.646 33.2896 114.574 33.3431 114.515 33.4106C114.456 33.4764 114.407 33.5522 114.369 33.6378C114.333 33.7217 114.306 33.809 114.288 33.8995V34.5391C114.321 34.6543 114.367 34.763 114.426 34.8651C114.486 34.9655 114.565 35.047 114.663 35.1095C114.762 35.1704 114.886 35.2009 115.036 35.2009C115.16 35.2009 115.266 35.1754 115.355 35.1243C115.445 35.0717 115.519 35.0001 115.577 34.9095C115.636 34.819 115.68 34.7152 115.708 34.5984C115.736 34.4798 115.75 34.3539 115.75 34.2205ZM116.799 35.2849C116.799 35.2075 116.823 35.1425 116.871 35.0898C116.92 35.0354 116.991 35.0083 117.083 35.0083C117.176 35.0083 117.245 35.0354 117.293 35.0898C117.343 35.1425 117.367 35.2075 117.367 35.2849C117.367 35.3606 117.343 35.4248 117.293 35.4775C117.245 35.5301 117.176 35.5565 117.083 35.5565C116.991 35.5565 116.92 35.5301 116.871 35.4775C116.823 35.4248 116.799 35.3606 116.799 35.2849Z" fill="white"/>
<defs>
<filter id="filter0_d_2_88" x="32.3816" y="24.5617" width="6.46467" height="10.9165" filterUnits="userSpaceOnUse" color-interpolation-filters="sRGB">
<feFlood flood-opacity="0" result="BackgroundImageFix"/>
<feColorMatrix in="SourceAlpha" type="matrix" values="0 0 0 0 0 0 0 0 0 0 0 0 0 0 0 0 0 0 127 0" result="hardAlpha"/>
<feOffset dx="-0.635989" dy="0.423993"/>
<feGaussianBlur stdDeviation="0.508792"/>
<feComposite in2="hardAlpha" operator="out"/>
<feColorMatrix type="matrix" values="0 0 0 0 0 0 0 0 0 0 0 0 0 0 0 0 0 0 0.3 0"/>
<feBlend mode="normal" in2="BackgroundImageFix" result="effect1_dropShadow_2_88"/>
<feBlend mode="normal" in="SourceGraphic" in2="effect1_dropShadow_2_88" result="shape"/>
</filter>
<filter id="filter1_d_2_88" x="11.6433" y="8.27653" width="10.9166" height="6.46461" filterUnits="userSpaceOnUse" color-interpolation-filters="sRGB">
<feFlood flood-opacity="0" result="BackgroundImageFix"/>
<feColorMatrix in="SourceAlpha" type="matrix" values="0 0 0 0 0 0 0 0 0 0 0 0 0 0 0 0 0 0 127 0" result="hardAlpha"/>
<feOffset dx="-0.635989" dy="0.423993"/>
<feGaussianBlur stdDeviation="0.508792"/>
<feComposite in2="hardAlpha" operator="out"/>
<feColorMatrix type="matrix" values="0 0 0 0 0 0 0 0 0 0 0 0 0 0 0 0 0 0 0.3 0"/>
<feBlend mode="normal" in2="BackgroundImageFix" result="effect1_dropShadow_2_88"/>
<feBlend mode="normal" in="SourceGraphic" in2="effect1_dropShadow_2_88" result="shape"/>
</filter>
<filter id="filter2_d_2_88" x="18.238" y="1.91154" width="28.2194" height="32.8982" filterUnits="userSpaceOnUse" color-interpolation-filters="sRGB">
<feFlood flood-opacity="0" result="BackgroundImageFix"/>
<feColorMatrix in="SourceAlpha" type="matrix" values="0 0 0 0 0 0 0 0 0 0 0 0 0 0 0 0 0 0 127 0" result="hardAlpha"/>
<feOffset dx="-0.635989" dy="0.423993"/>
<feGaussianBlur stdDeviation="0.508792"/>
<feComposite in2="hardAlpha" operator="out"/>
<feColorMatrix type="matrix" values="0 0 0 0 0 0 0 0 0 0 0 0 0 0 0 0 0 0 0.3 0"/>
<feBlend mode="normal" in2="BackgroundImageFix" result="effect1_dropShadow_2_88"/>
<feBlend mode="normal" in="SourceGraphic" in2="effect1_dropShadow_2_88" result="shape"/>
</filter>
<filter id="filter3_d_2_88" x="12.0554" y="0.40641" width="32.8981" height="28.2195" filterUnits="userSpaceOnUse" color-interpolation-filters="sRGB">
<feFlood flood-opacity="0" result="BackgroundImageFix"/>
<feColorMatrix in="SourceAlpha" type="matrix" values="0 0 0 0 0 0 0 0 0 0 0 0 0 0 0 0 0 0 127 0" result="hardAlpha"/>
<feOffset dx="-0.635989" dy="0.423993"/>
<feGaussianBlur stdDeviation="0.508792"/>
<feComposite in2="hardAlpha" operator="out"/>
<feColorMatrix type="matrix" values="0 0 0 0 0 0 0 0 0 0 0 0 0 0 0 0 0 0 0.3 0"/>
<feBlend mode="normal" in2="BackgroundImageFix" result="effect1_dropShadow_2_88"/>
<feBlend mode="normal" in="SourceGraphic" in2="effect1_dropShadow_2_88" result="shape"/>
</filter>
<linearGradient id="paint0_linear_2_88" x1="12.327" y1="20.1373" x2="0.193215" y2="32.2711" gradientUnits="userSpaceOnUse">
<stop stop-color="#C0C0C0"/>
<stop offset="1" stop-color="#D5D5D5" stop-opacity="0"/>
</linearGradient>
<linearGradient id="paint1_linear_2_88" x1="14.8202" y1="24.9486" x2="6.62793" y2="33.1408" gradientUnits="userSpaceOnUse">
<stop stop-color="#C3C3C3"/>
<stop offset="1" stop-color="#EAEAEA" stop-opacity="0"/>
</linearGradient>
<linearGradient id="paint2_linear_2_88" x1="10.2988" y1="36.7236" x2="8.06834" y2="38.954" gradientUnits="userSpaceOnUse">
<stop stop-color="#EAEAEA" stop-opacity="0.05"/>
<stop offset="1" stop-color="#DEDEDE" stop-opacity="0"/>
</linearGradient>
<linearGradient id="paint3_linear_2_88" x1="6.08685" y1="33.6752" x2="3.85642" y2="35.9056" gradientUnits="userSpaceOnUse">
<stop stop-color="#EAEAEA" stop-opacity="0.05"/>
<stop offset="1" stop-color="#DEDEDE" stop-opacity="0"/>
</linearGradient>
<linearGradient id="paint4_linear_2_88" x1="14.7382" y1="39.5685" x2="12.5078" y2="41.799" gradientUnits="userSpaceOnUse">
<stop stop-color="#EAEAEA" stop-opacity="0.05"/>
<stop offset="1" stop-color="#DEDEDE" stop-opacity="0"/>
</linearGradient>
<linearGradient id="paint5_linear_2_88" x1="16.7704" y1="30.3004" x2="11.2832" y2="35.7876" gradientUnits="userSpaceOnUse">
<stop stop-color="#A0A0A0"/>
<stop offset="1" stop-color="#E9E8E8" stop-opacity="0"/>
</linearGradient>
<linearGradient id="paint6_linear_2_88" x1="21.2831" y1="33.1341" x2="15.7958" y2="38.6214" gradientUnits="userSpaceOnUse">
<stop stop-color="#A0A0A0"/>
<stop offset="1" stop-color="#E9E8E8" stop-opacity="0"/>
</linearGradient>
<linearGradient id="paint7_linear_2_88" x1="26.8573" y1="34.8216" x2="21.2927" y2="40.3862" gradientUnits="userSpaceOnUse">
<stop stop-color="#717171"/>
<stop offset="1" stop-color="#A7A7A7" stop-opacity="0"/>
</linearGradient>
</defs>
</svg>
